<?xml version="1.0" encoding="UTF-8" standalone="no"?>
<!-- Created with Inkscape (http://www.inkscape.org/) -->

<svg
   xmlns:dc="http://purl.org/dc/elements/1.1/"
   xmlns:cc="http://creativecommons.org/ns#"
   xmlns:rdf="http://www.w3.org/1999/02/22-rdf-syntax-ns#"
   xmlns:svg="http://www.w3.org/2000/svg"
   xmlns="http://www.w3.org/2000/svg"
   xmlns:sodipodi="http://sodipodi.sourceforge.net/DTD/sodipodi-0.dtd"
   xmlns:inkscape="http://www.inkscape.org/namespaces/inkscape"
   width="300"
   height="71.283997"
   viewBox="0 0 79.374998 18.860558"
   version="1.1"
   id="svg1011"
   inkscape:version="0.92.4 5da689c313, 2019-01-14"
   sodipodi:docname="logo-light.svg">
  <defs
     id="defs1005" />
  <sodipodi:namedview
     id="base"
     pagecolor="#ffffff"
     bordercolor="#666666"
     borderopacity="1.0"
     inkscape:pageopacity="0.0"
     inkscape:pageshadow="2"
     inkscape:zoom="2.0489221"
     inkscape:cx="144.07159"
     inkscape:cy="17.974931"
     inkscape:document-units="mm"
     inkscape:current-layer="text1015"
     showgrid="false"
     units="px"
     inkscape:window-width="1470"
     inkscape:window-height="800"
     inkscape:window-x="66"
     inkscape:window-y="27"
     inkscape:window-maximized="1" />
  <metadata
     id="metadata1008">
    <rdf:RDF>
      <cc:Work
         rdf:about="">
        <dc:format>image/svg+xml</dc:format>
        <dc:type
           rdf:resource="http://purl.org/dc/dcmitype/StillImage" />
        <dc:title />
      </cc:Work>
    </rdf:RDF>
  </metadata>
  <g
     inkscape:label="Calque 1"
     inkscape:groupmode="layer"
     id="layer1"
     transform="translate(0,-278.13943)">
    <g
       aria-label="ImEditor"
       style="font-style:normal;font-weight:normal;font-size:16.40616989px;line-height:1.25;font-family:sans-serif;letter-spacing:0px;word-spacing:0px;fill:#000000;fill-opacity:1;stroke:none;stroke-width:0.41015425"
       id="text1015">
      <path
         d="m 39.57722,293.06249 q 0.295311,-0.11812 0.492185,-0.11812 0.314999,0 0.472498,0.23625 0.157499,0.23625 0.157499,0.61031 0,0.59062 -0.295311,1.00405 -0.275624,0.41344 -0.964683,0.74812 -1.161557,0.55125 -3.012173,0.88594 -1.850616,0.315 -3.64217,0.315 -2.480612,0 -4.154042,-0.55125 -1.673429,-0.57094 -2.5003,-1.55531 -0.807184,-0.98437 -0.807184,-2.22467 0,-1.69312 1.082807,-2.87436 1.102495,-1.20094 3.228735,-1.7325 -1.161557,-0.33468 -1.791554,-1.18124 -0.61031,-0.84656 -0.61031,-1.88999 0,-1.41749 0.885934,-2.5003 0.90562,-1.1025 2.42155,-1.69312 1.515931,-0.59062 3.327172,-0.59062 2.441238,0 3.661857,1.06312 1.220619,1.04343 1.220619,2.71686 0,1.16156 -0.433123,1.88999 -0.413435,0.70875 -1.200931,0.70875 -0.551248,0 -0.866246,-0.23625 -0.314999,-0.25594 -0.314999,-0.74812 0,-0.33469 0.09844,-0.72843 0.09844,-0.64969 0.09844,-0.88594 0,-0.70874 -0.53156,-1.14187 -0.53156,-0.45281 -1.771866,-0.45281 -1.673429,0 -2.677487,0.70875 -1.004058,0.70875 -1.004058,1.90968 0,0.9253 0.748122,1.53561 0.767808,0.59063 2.480613,0.64969 0.433123,0.0197 0.610309,0.19687 0.177187,0.17719 0.177187,0.59063 0,1.29936 -1.181244,1.31905 -1.634055,0.0394 -2.716862,0.45281 -1.06312,0.41344 -1.555305,1.06312 -0.472498,0.63 -0.472498,1.35843 0,1.22062 1.141869,1.85062 1.14187,0.61031 3.622483,0.61031 1.634055,0 3.445296,-0.37406 1.830928,-0.39375 3.130297,-0.945 z"
         style="font-style:normal;font-variant:normal;font-weight:normal;font-stretch:normal;font-size:19.68740463px;font-family:Pacifico;-inkscape-font-specification:Pacifico;stroke-width:0.41015425;fill:#f2f2f2;fill-opacity:1"
         id="path1021" />
      <path
         d="m 49.952789,292.25531 q 0.255936,0 0.393748,0.23625 0.157499,0.23625 0.157499,0.64968 0,0.7875 -0.374061,1.22062 -0.807183,0.98437 -1.771866,1.69312 -0.964683,0.68906 -1.909678,0.68906 -1.496243,0 -2.283739,-1.75218 -0.826871,1.04343 -1.456868,1.3978 -0.61031,0.35438 -1.437181,0.35438 -1.200932,0 -1.988428,-0.88594 -0.767808,-0.90562 -0.767808,-2.3428 0,-1.57499 0.669371,-2.91373 0.669372,-1.35843 1.830929,-2.20499 1.181244,-0.86625 2.638112,-1.02375 0.374061,-3.81935 1.417493,-6.51653 1.06312,-2.71686 2.775924,-2.71686 0.846559,0 1.397806,0.76781 0.570935,0.76781 0.570935,2.32311 0,2.20499 -1.082807,5.1581 -1.082808,2.95311 -2.894049,6.06372 0.07875,1.14187 0.334686,1.63406 0.275624,0.49218 0.689059,0.49218 0.53156,0 1.082807,-0.4725 0.551248,-0.47249 1.476556,-1.57499 0.236249,-0.27562 0.53156,-0.27562 z M 47.629675,280.0688 q -0.374061,0 -0.748122,1.33875 -0.37406,1.31905 -0.649684,3.46498 -0.255936,2.14593 -0.374061,4.48873 2.20499,-4.80373 2.20499,-7.71746 0,-0.74812 -0.137812,-1.16156 -0.118124,-0.41344 -0.295311,-0.41344 z m -5.669973,14.68681 q 0.374061,0 0.748122,-0.29531 0.37406,-0.315 0.944995,-1.14187 -0.196874,-1.06312 -0.196874,-2.38218 0,-0.4725 0.03937,-1.53562 -1.082807,0.33469 -1.811241,1.45687 -0.708747,1.1025 -0.708747,2.46093 0,1.43718 0.98437,1.43718 z"
         style="font-style:normal;font-variant:normal;font-weight:normal;font-stretch:normal;font-size:19.68740463px;font-family:Pacifico;-inkscape-font-specification:Pacifico;stroke-width:0.41015425;fill:#f2f2f2;fill-opacity:1"
         id="path1023" />
      <path
         d="m 51.500714,286.1719 q -0.826871,0 -1.240306,-0.37406 -0.413436,-0.39375 -0.413436,-1.08281 0,-0.68906 0.53156,-1.14187 0.551247,-0.4725 1.358431,-0.4725 0.728434,0 1.181244,0.35438 0.452811,0.35437 0.452811,1.00406 0,0.78749 -0.511873,1.25999 -0.511872,0.45281 -1.358431,0.45281 z m -0.157499,10.57214 q -1.279681,0 -1.870303,-0.90562 -0.570935,-0.90562 -0.570935,-2.40187 0,-0.88593 0.216561,-2.26405 0.236249,-1.3978 0.590622,-2.59874 0.177187,-0.62999 0.472498,-0.86624 0.295311,-0.23625 0.944996,-0.23625 1.004057,0 1.004057,0.66937 0,0.49219 -0.374061,2.28374 -0.472497,2.16561 -0.472497,2.93342 0,0.59062 0.157499,0.90562 0.157499,0.315 0.53156,0.315 0.354373,0 0.885933,-0.49218 0.53156,-0.49219 1.417493,-1.55531 0.236249,-0.27562 0.53156,-0.27562 0.255936,0 0.393748,0.23625 0.1575,0.23625 0.1575,0.64968 0,0.7875 -0.374061,1.22062 -1.949053,2.38218 -3.64217,2.38218 z"
         style="font-style:normal;font-variant:normal;font-weight:normal;font-stretch:normal;font-size:19.68740463px;font-family:Pacifico;-inkscape-font-specification:Pacifico;stroke-width:0.41015425;fill:#f2f2f2;fill-opacity:1"
         id="path1025" />
      <path
         d="m 62.547191,292.25531 q 0.255936,0 0.393748,0.23625 0.157499,0.23625 0.157499,0.64968 0,0.7875 -0.374061,1.22062 -0.846558,1.04343 -1.850616,1.7128 -1.004057,0.66938 -2.303426,0.66938 -4.016231,0 -4.016231,-5.65029 0,-0.86624 0.05906,-1.75218 h -0.767809 q -0.590622,0 -0.807184,-0.21656 -0.196874,-0.21656 -0.196874,-0.68906 0,-1.10249 0.885933,-1.10249 h 1.122182 q 0.334686,-2.16562 1.023745,-3.95717 0.68906,-1.79156 1.653742,-2.85468 0.984371,-1.06311 2.106553,-1.06311 0.826871,0 1.299368,0.72843 0.472498,0.72843 0.472498,1.83093 0,3.05155 -2.559362,5.3156 h 2.204989 q 0.314998,0 0.45281,0.13781 0.137812,0.13781 0.137812,0.51187 0,1.35843 -2.224677,1.35843 H 57.01503 q -0.03937,0.98437 -0.03937,1.53562 0,2.04749 0.472498,2.87436 0.492185,0.82687 1.535617,0.82687 0.846559,0 1.496243,-0.51187 0.649685,-0.51187 1.535618,-1.53562 0.236249,-0.27562 0.53156,-0.27562 z m -3.445296,-10.90682 q -0.295311,0 -0.669372,0.74812 -0.354373,0.72843 -0.689059,2.04749 -0.314999,1.29937 -0.53156,2.89405 1.161557,-1.00406 1.732492,-2.24437 0.590622,-1.25999 0.590622,-2.28374 0,-1.16155 -0.433123,-1.16155 z"
         style="font-style:normal;font-variant:normal;font-weight:normal;font-stretch:normal;font-size:19.68740463px;font-family:Pacifico;-inkscape-font-specification:Pacifico;stroke-width:0.41015425;fill:#f2f2f2;fill-opacity:1"
         id="path1027" />
      <path
         d="m 71.536032,290.60157 q 0.255936,0 0.393748,0.25593 0.137812,0.25594 0.137812,0.64969 0,0.94499 -0.570935,1.12218 -1.181244,0.41343 -2.598737,0.4725 -0.374061,1.65374 -1.476556,2.6578 -1.102494,0.98437 -2.5003,0.98437 -1.181244,0 -2.027803,-0.57094 -0.826871,-0.57093 -1.259993,-1.51593 -0.433123,-0.94499 -0.433123,-2.04749 0,-1.49624 0.570934,-2.6578 0.570935,-1.18124 1.574993,-1.83093 1.004057,-0.66937 2.224676,-0.66937 1.496243,0 2.401864,1.04343 0.925308,1.02375 1.082807,2.53968 0.925308,-0.0591 2.204989,-0.39375 0.1575,-0.0394 0.275624,-0.0394 z m -6.457469,4.0556 q 0.629997,0 1.082808,-0.51187 0.472497,-0.51187 0.629997,-1.47656 -0.61031,-0.41343 -0.944996,-1.0828 -0.314998,-0.66938 -0.314998,-1.4175 0,-0.315 0.05906,-0.62999 h -0.09844 q -0.787496,0 -1.319056,0.76781 -0.511873,0.74812 -0.511873,2.12623 0,1.08281 0.413436,1.65375 0.433123,0.57093 1.004057,0.57093 z"
         style="font-style:normal;font-variant:normal;font-weight:normal;font-stretch:normal;font-size:19.68740463px;font-family:Pacifico;-inkscape-font-specification:Pacifico;stroke-width:0.41015425;fill:#f2f2f2;fill-opacity:1"
         id="path1029" />
      <path
         d="m 78.331568,290.16844 q 0.433123,0 0.728434,0.315 0.314998,0.29531 0.314998,0.74812 0,0.25594 -0.118124,0.55125 -0.314999,0.72843 -0.885934,1.22062 -0.570934,0.49218 -1.259993,0.49218 -0.551248,0 -0.944996,-0.39374 -0.374061,-0.39375 -0.374061,-1.06312 0,-0.37406 0.03937,-0.80719 0.03938,-0.315 0.03938,-0.43312 0,-0.1575 -0.07875,-0.23625 -0.05906,-0.0788 -0.157499,-0.0788 -0.275623,0 -0.748121,0.66937 -0.472498,0.64969 -0.944996,1.7325 -0.472497,1.0828 -0.767808,2.28373 -0.216562,0.945 -0.492185,1.26 -0.275624,0.315 -0.905621,0.315 -0.748121,0 -1.06312,-0.7875 -0.295311,-0.7875 -0.295311,-2.51999 0,-2.55936 0.728434,-4.86279 0.177187,-0.57093 0.570935,-0.82687 0.413435,-0.27562 1.141869,-0.27562 0.393748,0 0.551248,0.0984 0.157499,0.0984 0.157499,0.37406 0,0.31499 -0.295311,1.41749 -0.196874,0.7875 -0.314999,1.37812 -0.118124,0.59062 -0.196874,1.45687 0.649685,-1.69312 1.456868,-2.75624 0.807184,-1.06312 1.574992,-1.51593 0.767809,-0.45281 1.397806,-0.45281 0.570935,0 0.866246,0.33468 0.314998,0.315 0.314998,0.945 0,0.37406 -0.216561,1.41749 z"
         style="font-style:normal;font-variant:normal;font-weight:normal;font-stretch:normal;font-size:19.68740463px;font-family:Pacifico;-inkscape-font-specification:Pacifico;stroke-width:0.41015425;fill:#f2f2f2;fill-opacity:1"
         id="path1031" />
      <path
         d="m 10.060264,280.0688 q 0.511872,0 0.866245,0.25594 0.354374,0.23625 0.354374,0.59062 0,0.63 -0.393748,1.02375 -0.393748,0.37406 -1.1221824,0.37406 -1.1418695,0 -1.7324916,0.0197 -0.039375,0.23625 -0.3543733,2.12624 -0.3543733,2.10655 -0.4331229,2.57905 l -0.4134355,2.57905 q -0.4331229,2.89404 -0.6890592,4.8431 0.4134355,-0.0197 1.1221821,-0.0197 1.0434324,0 1.4174931,0.27562 0.3740607,0.27563 0.3740607,0.82687 0,0.51188 -0.4134355,0.86625 -0.3937481,0.35437 -1.1221821,0.35437 -0.4921851,0 -1.5553049,-0.0394 -0.9843703,-0.0394 -1.2993687,-0.0394 -1.2403065,0 -2.7168619,0.21657 -0.6496843,0.0984 -0.925308,0.0984 -0.4331229,0 -0.72843397,-0.23625 Q -1.3589859e-7,296.52747 -1.3589859e-7,296.07466 q 0,-0.70874 0.62999694589859,-1.10249 0.62999699,-0.39375 1.77186639,-0.41344 l 0.925308,-0.0197 0.059062,-0.43313 q 0.4724977,-3.14998 0.6890591,-4.44935 l 0.4331229,-2.57905 q 0.3937481,-2.28374 0.7087466,-4.70529 l -1.653742,0.0197 q -0.7087466,0 -0.9843702,-0.21656 -0.2559363,-0.23625 -0.2559363,-0.64969 0,-1.33874 1.9293657,-1.43718 0.9056206,-0.0394 2.2049893,-0.0394 z"
         style="font-style:normal;font-variant:normal;font-weight:normal;font-stretch:normal;font-size:19.68740463px;font-family:Pacifico;-inkscape-font-specification:Pacifico;stroke-width:0.41015425;fill:#f2f2f2;fill-opacity:1"
         id="path1017" />
      <path
         d="m 12.405834,296.74404 q -0.748122,0 -1.06312,-0.7875 -0.295311,-0.7875 -0.295311,-2.51999 0,-2.55936 0.728434,-4.86279 0.177186,-0.57093 0.570935,-0.82687 0.413435,-0.27562 1.141869,-0.27562 0.393748,0 0.551247,0.0984 0.1575,0.0984 0.1575,0.37406 0,0.31499 -0.295312,1.41749 -0.196874,0.7875 -0.314998,1.37812 -0.118124,0.57093 -0.196874,1.43718 0.53156,-1.53562 1.259994,-2.59874 0.748121,-1.06312 1.51593,-1.57499 0.787496,-0.53156 1.476555,-0.53156 0.68906,0 0.964683,0.315 0.295311,0.315 0.295311,0.96468 0,0.63 -0.37406,2.28374 -0.1575,0.70875 -0.216562,1.06312 0.98437,-2.42155 2.185302,-3.52405 1.200932,-1.10249 2.244364,-1.10249 1.279681,0 1.279681,1.27968 0,0.76781 -0.433122,2.77592 -0.374061,1.71281 -0.374061,2.26406 0,0.78749 0.570935,0.78749 0.393748,0 0.925308,-0.4725 0.551247,-0.49218 1.456868,-1.57499 0.236248,-0.27562 0.531559,-0.27562 0.255937,0 0.393749,0.23625 0.157499,0.23625 0.157499,0.64968 0,0.7875 -0.374061,1.22062 -0.846558,1.04343 -1.830929,1.7128 -0.964682,0.66938 -2.204989,0.66938 -1.004057,0 -1.51593,-0.57094 -0.511873,-0.59062 -0.511873,-1.69312 0,-0.55124 0.275624,-1.96874 0.255936,-1.2403 0.255936,-1.7128 0,-0.315 -0.216561,-0.315 -0.255936,0 -0.728434,0.66937 -0.472498,0.64969 -0.944995,1.7325 -0.472498,1.0828 -0.767809,2.28373 -0.216562,0.945 -0.511873,1.26 -0.275623,0.315 -0.90562,0.315 -0.649685,0 -0.984371,-0.61031 -0.314998,-0.63 -0.314998,-1.51593 0,-0.74812 0.196874,-2.16562 0.157499,-1.25999 0.157499,-1.65374 0,-0.315 -0.216561,-0.315 -0.295311,0 -0.748122,0.70875 -0.45281,0.70874 -0.885933,1.81124 -0.413435,1.10249 -0.669372,2.16561 -0.216561,0.92531 -0.511872,1.26 -0.275624,0.315 -0.885933,0.315 z"
         style="font-style:normal;font-variant:normal;font-weight:normal;font-stretch:normal;font-size:19.68740463px;font-family:Pacifico;-inkscape-font-specification:Pacifico;stroke-width:0.41015425;fill:#f2f2f2;fill-opacity:1"
         id="path1019" />
    </g>
  </g>
</svg>
